<?xml version="1.0" encoding="UTF-8" standalone="no"?>
<!-- Created with Inkscape (http://www.inkscape.org/) -->

<svg
   xmlns:dc="http://purl.org/dc/elements/1.1/"
   xmlns:cc="http://creativecommons.org/ns#"
   xmlns:rdf="http://www.w3.org/1999/02/22-rdf-syntax-ns#"
   xmlns:svg="http://www.w3.org/2000/svg"
   xmlns="http://www.w3.org/2000/svg"
   xmlns:sodipodi="http://sodipodi.sourceforge.net/DTD/sodipodi-0.dtd"
   xmlns:inkscape="http://www.inkscape.org/namespaces/inkscape"
   width="21.448889mm"
   height="21.448889mm"
   viewBox="0 0 76 75.999999"
   id="svg4403"
   version="1.1"
   inkscape:version="0.91 r13725"
   sodipodi:docname="facebook.svg">
  <defs
     id="defs4405" />
  <sodipodi:namedview
     id="base"
     pagecolor="#ffffff"
     bordercolor="#666666"
     borderopacity="1.0"
     inkscape:pageopacity="0.0"
     inkscape:pageshadow="2"
     inkscape:zoom="2.2261628"
     inkscape:cx="117.14286"
     inkscape:cy="-17.142857"
     inkscape:document-units="px"
     inkscape:current-layer="layer1"
     showgrid="false"
     fit-margin-top="0"
     fit-margin-left="0"
     fit-margin-right="0"
     fit-margin-bottom="0"
     inkscape:window-width="901"
     inkscape:window-height="690"
     inkscape:window-x="1942"
     inkscape:window-y="174"
     inkscape:window-maximized="0" />
  <metadata
     id="metadata4408">
    <rdf:RDF>
      <cc:Work
         rdf:about="">
        <dc:format>image/svg+xml</dc:format>
        <dc:type
           rdf:resource="http://purl.org/dc/dcmitype/StillImage" />
        <dc:title />
      </cc:Work>
    </rdf:RDF>
  </metadata>
  <g
     inkscape:label="Capa 1"
     inkscape:groupmode="layer"
     id="layer1"
     transform="translate(-327.71429,-722.93363)">
    <rect
       style="fill:#ffffff"
       id="rect3336"
       width="44.021938"
       height="49.41238"
       x="344.33481"
       y="735.14673" />
    <path
       style="fill:#43619c"
       inkscape:connector-curvature="0"
       id="path134"
       d="m 365.71429,722.93363 c -21,0 -38,17 -38,38 0,21 17,38 38,38 21,0 38,-17 38,-38 0,-21 -17,-38 -38,-38 z m 18.5,54 c 0,1.1 -0.5,1.9 -1.7,1.9 l -9.3,0 0,-14 4.8,0 0.7,-6 -5.5,0 0,-3.1 c 0,-1.6 0.4,-2.9 2.7,-2.9 l 3.3,0 0,-4.8 c -1,-0.1 -2.6,-0.2 -4.6,-0.2 -4.2,0 -7.4,2.6 -7.4,7.3 l 0,3.7 -5,0 0,6 5,0 0,14 -17.3,0 c -1.1,0 -1.7,-0.7 -1.7,-1.9 l 0,-32.7 c 0,-1.1 0.6,-2.5 1.7,-2.5 l 32.7,0 c 1.1,0 1.7,1.4 1.7,2.5 l 0,32.7 z" />
    <rect
       style="fill:#ffffff"
       id="rect3334"
       width="35.487072"
       height="29.198225"
       x="356.0141"
       y="826.33502" />
  </g>
</svg>
