<?xml version="1.0" encoding="UTF-8" standalone="no"?>
<!-- Created with Inkscape (http://www.inkscape.org/) -->

<svg
   xmlns:dc="http://purl.org/dc/elements/1.1/"
   xmlns:cc="http://creativecommons.org/ns#"
   xmlns:rdf="http://www.w3.org/1999/02/22-rdf-syntax-ns#"
   xmlns:svg="http://www.w3.org/2000/svg"
   xmlns="http://www.w3.org/2000/svg"
   xmlns:sodipodi="http://sodipodi.sourceforge.net/DTD/sodipodi-0.dtd"
   xmlns:inkscape="http://www.inkscape.org/namespaces/inkscape"
   width="21.448889mm"
   height="21.448889mm"
   viewBox="0 0 76 75.999999"
   id="svg4526"
   version="1.1"
   inkscape:version="0.91 r13725"
   sodipodi:docname="instagram.svg">
  <defs
     id="defs4528" />
  <sodipodi:namedview
     id="base"
     pagecolor="#ffffff"
     bordercolor="#666666"
     borderopacity="1.0"
     inkscape:pageopacity="0.0"
     inkscape:pageshadow="2"
     inkscape:zoom="0.35"
     inkscape:cx="333"
     inkscape:cy="312.28571"
     inkscape:document-units="px"
     inkscape:current-layer="layer1"
     showgrid="false"
     fit-margin-top="0"
     fit-margin-left="0"
     fit-margin-right="0"
     fit-margin-bottom="0"
     inkscape:window-width="467"
     inkscape:window-height="379"
     inkscape:window-x="1991"
     inkscape:window-y="150"
     inkscape:window-maximized="0" />
  <metadata
     id="metadata4531">
    <rdf:RDF>
      <cc:Work
         rdf:about="">
        <dc:format>image/svg+xml</dc:format>
        <dc:type
           rdf:resource="http://purl.org/dc/dcmitype/StillImage" />
        <dc:title></dc:title>
      </cc:Work>
    </rdf:RDF>
  </metadata>
  <g
     inkscape:label="Capa 1"
     inkscape:groupmode="layer"
     id="layer1"
     transform="translate(-41.999996,-768.64792)">
    <g
       id="Instagram_6_"
       transform="translate(-930.09998,258.84793)">
      <circle
         style="fill:#e64c8f;fill-opacity:0.94117647"
         id="circle100"
         r="38"
         cy="547.79999"
         cx="1010.1" />
      <path
         style="fill:#ffffff"
         inkscape:connector-curvature="0"
         d="m 1025.1,529.4 -27.9,0 c -2.4,0 -4.4,1.9 -4.4,4.3 l 0,28 c 0,2.4 2,4.3 4.4,4.3 l 27.9,0 c 2.4,0 4.4,-1.9 4.4,-4.3 l 0,-28 c -0.1,-2.4 -2,-4.3 -4.4,-4.3 z m -6,5.7 c 0,-0.6 0.5,-1.1 1.1,-1.1 l 3.4,0 c 0.6,0 1.1,0.5 1.1,1.1 l 0,3.4 c 0,0.6 -0.5,1.1 -1.1,1.1 l -3.4,0 c -0.6,0 -1.1,-0.5 -1.1,-1.1 l 0,-3.4 z m -8,5.6 c 3.9,0 7.1,3.1 7.1,7 0,3.9 -3.2,7 -7.1,7 -3.9,0 -7,-3.1 -7,-7 0,-3.8 3.1,-7 7,-7 z m 14.9,20.7 c 0,0.6 -0.5,1.1 -1.1,1.1 l -27.5,0 c -0.6,0 -1.1,-0.5 -1.1,-1.1 l 0,-17.2 4.6,0 c -0.6,0.9 -0.8,2.5 -0.8,3.5 0,6.1 5,11.1 11.2,11.1 6.2,0 11.2,-5 11.2,-11.1 0,-1 -0.1,-2.6 -0.9,-3.5 l 4.6,0 0,17.2 z"
         id="Instagram_2_" />
    </g>
  </g>
</svg>
