<?xml version="1.0" encoding="UTF-8" standalone="no"?>
<!-- Created with Inkscape (http://www.inkscape.org/) -->

<svg
   xmlns:dc="http://purl.org/dc/elements/1.1/"
   xmlns:cc="http://creativecommons.org/ns#"
   xmlns:rdf="http://www.w3.org/1999/02/22-rdf-syntax-ns#"
   xmlns:svg="http://www.w3.org/2000/svg"
   xmlns="http://www.w3.org/2000/svg"
   xmlns:sodipodi="http://sodipodi.sourceforge.net/DTD/sodipodi-0.dtd"
   xmlns:inkscape="http://www.inkscape.org/namespaces/inkscape"
   width="21.448889mm"
   height="21.448889mm"
   viewBox="0 0 76 75.999999"
   id="svg4454"
   version="1.1"
   inkscape:version="0.91 r13725"
   sodipodi:docname="twitter.svg">
  <defs
     id="defs4456" />
  <sodipodi:namedview
     id="base"
     pagecolor="#ffffff"
     bordercolor="#666666"
     borderopacity="1.0"
     inkscape:pageopacity="0.0"
     inkscape:pageshadow="2"
     inkscape:zoom="0.35"
     inkscape:cx="167.28571"
     inkscape:cy="-30.571429"
     inkscape:document-units="px"
     inkscape:current-layer="layer1"
     showgrid="false"
     fit-margin-top="0"
     fit-margin-left="0"
     fit-margin-right="0"
     fit-margin-bottom="0"
     inkscape:window-width="472"
     inkscape:window-height="379"
     inkscape:window-x="2142"
     inkscape:window-y="220"
     inkscape:window-maximized="0" />
  <metadata
     id="metadata4459">
    <rdf:RDF>
      <cc:Work
         rdf:about="">
        <dc:format>image/svg+xml</dc:format>
        <dc:type
           rdf:resource="http://purl.org/dc/dcmitype/StillImage" />
        <dc:title></dc:title>
      </cc:Work>
    </rdf:RDF>
  </metadata>
  <g
     inkscape:label="Capa 1"
     inkscape:groupmode="layer"
     id="layer1"
     transform="translate(-207.71429,-425.79078)">
    <g
       id="Twitter_6_"
       transform="translate(-637.38569,-84.009212)">
      <g
         id="g4468">
        <circle
           cx="883.09998"
           cy="547.79999"
           r="38"
           id="circle104"
           style="fill:#24a9e6" />
        <path
           id="Twitter_2_"
           d="m 900.4,532.6 c -1.5,0.9 -3.1,1.6 -4.9,1.9 -1.4,-1.5 -3.4,-2.5 -5.6,-2.5 -4.2,0 -7.7,3.5 -7.7,7.9 0,0.6 0.1,1.2 0.2,1.8 -6.4,-0.3 -12,-3.5 -15.8,-8.2 -0.7,1.2 -1,2.5 -1,4 0,2.7 1.4,5.1 3.4,6.6 -1.3,0 -2.4,-0.4 -3.5,-1 l 0,0.1 c 0,3.8 2.6,7 6.2,7.7 -0.6,0.2 -1.3,0.3 -2,0.3 -0.5,0 -1,0 -1.4,-0.1 1,3.1 3.8,5.4 7.2,5.5 -2.6,2.1 -5.9,3.4 -9.5,3.4 -0.6,0 -1.2,0 -1.8,-0.1 3.4,2.2 7.4,3.5 11.8,3.5 14.1,0 21.9,-12 21.9,-22.4 0,-0.3 0,-0.7 0,-1 1.5,-1.1 2.8,-2.5 3.8,-4.1 -1.4,0.6 -2.9,1.1 -4.4,1.2 1.3,-1.2 2.5,-2.7 3.1,-4.5 z"
           inkscape:connector-curvature="0"
           style="fill:#ffffff" />
      </g>
    </g>
  </g>
</svg>
